<?xml version="1.0" encoding="utf-8"?>
<!-- Single-Arm Pantograph icon by Arthur Shlain from Usefulicons.com -->
<svg xmlns="http://www.w3.org/2000/svg" xmlns:xlink="http://www.w3.org/1999/xlink" xml:space="preserve" version="1.1" x="0px" y="0px" viewBox="0 0 100 100" width="400px" height="400px"><path d="M63.535,57.5C64.473,56.562,65,55.291,65,53.965L65,45L70,45C72.761,45,75,42.761,75,40L75,20.372C77.751,20.984,80.281,22.352,82.322,24.394L86.464,28.536L90,25L85.858,20.858C82.107,17.107,77.02,15,71.716,15L28.284,15C22.98,15,17.893,17.107,14.142,20.858L10,25L13.536,28.536L17.678,24.394C20.103,21.969,23.213,20.486,26.571,20.106L50,43.536C50.938,44.473,52.21,45,53.536,45L56.465,45L26.465,75L10,75L10,85L90,85L90,75L46.035,75L63.535,57.5ZM70,40L64.045,40L61.545,35L70,35L70,40ZM33.535,20L70,20L70,30L43.535,30L33.535,20ZM53.535,40L48.535,35L55.954,35L58.454,40L53.535,40ZM33.535,75L60,48.536L60,53.965L38.965,75L33.535,75Z" stroke="none"></path></svg>